<svg xmlns="http://www.w3.org/2000/svg" xmlns:xlink="http://www.w3.org/1999/xlink" width="576" height="784" viewBox="0 0 576 784">
  <defs>
    <clipPath id="clip-path">
      <rect id="Rectangle_27" data-name="Rectangle 27" width="576" height="784" transform="translate(3385 2967)" fill="#fff"/>
    </clipPath>
  </defs>
  <g id="error-404-small" transform="translate(-3385 -2967)" clip-path="url(#clip-path)">
    <g id="error.404" transform="translate(2964 2967)">
      <g id="Layer_2" data-name="Layer 2">
        <g id="OBJECTS">
          <rect id="Rectangle_26" data-name="Rectangle 26" width="1229.091" height="783.588" fill="#fda9a8"/>
          <path id="Path_9" data-name="Path 9" d="M0,183.811s147.738-27.375,388.836,45.762c296.177,89.855,507.1-109.253,840.255-40.279V438.555H0Z" transform="translate(0 185.174)" fill="#fff" opacity="0.5"/>
          <path id="Path_10" data-name="Path 10" d="M0,300.6S140.853,254.76,547.932,254.76s681.159,54.894,681.159,54.894V513.276H0Z" transform="translate(0 270.394)" fill="#fff"/>
          <path id="Path_11" data-name="Path 11" d="M369.1,109.163h91.834s-3.03-9.544-20.8-7.586c-11.688-18.841-29.024-3.772-29.024-.268C399.423,77.974,369.1,94.032,369.1,109.163Z" transform="translate(391.751 95.036)" fill="#fff"/>
          <path id="Path_12" data-name="Path 12" d="M497.85,160H653.215s-5.442-15.069-28.859-10.307c-16.305-33.415-53.6-43.412-75.343-13.564C510.28,130.935,497.85,160,497.85,160Z" transform="translate(-380.597 24.643)" fill="#fff"/>
          <path id="Path_13" data-name="Path 13" d="M62.36,153.254h93.586s-3.278-9.07-17.315-6.287c-9.833-20.119-32.281-26.138-45.35-8.245C69.863,135.732,62.36,153.254,62.36,153.254Z" transform="translate(66.187 135.956)" fill="#fff"/>
          <path id="Path_14" data-name="Path 14" d="M139.534,91.868c-21.809-53.513-92.123-35.682-98.1,3.958C25.561,87.23,11.606,86.818,0,90.054v27.581H192.058S178.185,87.89,139.534,91.868Z" transform="translate(361 39.033)" fill="#fff"/>
          <path id="Path_15" data-name="Path 15" d="M663.628,79.93c-18.264-44.835-77.2-29.91-82.166,3.319-39.846-21.583-65.572,18.3-65.572,18.3H681.727V81.167a49.987,49.987,0,0,0-18.1-1.237Z" transform="translate(547.55 55.11)" fill="#fff"/>
          <path id="Path_16" data-name="Path 16" d="M291.381,242.253c-9.874-2.845-16.9.165-21.871,6.658l17.645,17.79Z" transform="translate(286.05 255.98)" fill="#fb6f6e"/>
          <path id="Path_17" data-name="Path 17" d="M268.8,336.456l13.481-4.123s7.833-18.1,15.213-41.434L276.2,293.621Z" transform="translate(285.296 308.752)" fill="#fb6f6e"/>
          <path id="Path_18" data-name="Path 18" d="M265.21,289.01v51.74l5.195-1.608,7.586-43.825Z" transform="translate(281.486 306.746)" fill="#fb6f6e"/>
          <path id="Path_19" data-name="Path 19" d="M286.669,291.08l4.617-26.8L272.878,245.73a60.21,60.21,0,0,0-7.668,22.263v6.926Z" transform="translate(281.486 260.81)" fill="#fb6f6e"/>
          <path id="Path_20" data-name="Path 20" d="M272.57,304.011l21.6-2.762c2.206-7.05,4.329-14.533,6.184-22.119l-24.056,3.3Z" transform="translate(289.297 296.26)" fill="#fb6f6e"/>
          <path id="Path_21" data-name="Path 21" d="M286.277,276.981,265.21,261.17v28.138l17.254,9.647Z" transform="translate(281.486 277.198)" fill="#fb6f6e"/>
          <path id="Path_22" data-name="Path 22" d="M297.282,258.892c-2.35-8.039-6.8-14.038-14.079-16.862l-4.123,24.262Z" transform="translate(296.207 256.883)" fill="#fb6f6e"/>
          <path id="Path_23" data-name="Path 23" d="M276.59,285.831l24.736-5.195A87.608,87.608,0,0,0,300.5,251.2l-19.274,7.833Z" transform="translate(293.564 266.616)" fill="#fb6f6e"/>
          <path id="Path_24" data-name="Path 24" d="M259.175,326.015,276.14,311.07V280.5l-23.17,19.954Z" transform="translate(268.495 297.714)" fill="#4c60a5"/>
          <path id="Path_25" data-name="Path 25" d="M274.56,293.71l24.2-3.319a222.1,222.1,0,0,0,4.452-23.891l-24.86,5.153Z" transform="translate(291.41 282.855)" fill="#fb6f6e"/>
          <path id="Path_26" data-name="Path 26" d="M282.093,285.422,265.21,275.96v24.613l13.131,6.473Z" transform="translate(281.486 292.895)" fill="#fb6f6e"/>
          <path id="Path_27" data-name="Path 27" d="M273.794,279.768,225.64,276.8a258.465,258.465,0,0,0,7.627,28.1l46.175-1.876Z" transform="translate(239.487 293.787)" fill="#4c60a5"/>
          <path id="Path_28" data-name="Path 28" d="M268.69,266.184,223.34,260a229.69,229.69,0,0,0,4.288,32.425l48.071,2.968Z" transform="translate(237.046 275.956)" fill="#4c60a5"/>
          <path id="Path_29" data-name="Path 29" d="M249.1,226.46c-12.822,3.133-20.758,15.069-24.551,31.848l34.59,9.523Z" transform="translate(238.33 240.358)" fill="#fb6f6e"/>
          <path id="Path_30" data-name="Path 30" d="M249.651,290.057l32.384-33.724a78.332,78.332,0,0,0-11.07-21.582l-28.406,26.1Z" transform="translate(257.446 249.156)" fill="#fb6f6e"/>
          <path id="Path_31" data-name="Path 31" d="M275.679,290.51l-45.989,1.876a223.694,223.694,0,0,0,10.472,25.54l41.784-1.608Z" transform="translate(243.786 308.338)" fill="#4c60a5"/>
          <path id="Path_32" data-name="Path 32" d="M235.27,305.607a144.5,144.5,0,0,0,20.882,31.7l26.509-8.122-6.184-25.169Z" transform="translate(249.708 322.677)" fill="#4c60a5"/>
          <path id="Path_33" data-name="Path 33" d="M255.576,313.82,279.3,293.392v-27.6L249.99,290.856Z" transform="translate(265.332 282.101)" fill="#fb6f6e"/>
          <path id="Path_34" data-name="Path 34" d="M253.37,309.306l29.849-25.54v-20.14a139.372,139.372,0,0,0-4.37-17.336L246.3,280.179Z" transform="translate(261.415 261.405)" fill="#fb6f6e"/>
          <path id="Path_35" data-name="Path 35" d="M256.25,311.131l6.122,25.272,10.286-3.154V296.66Z" transform="translate(271.976 314.866)" fill="#4c60a5"/>
          <path id="Path_36" data-name="Path 36" d="M275.163,242.4a42.32,42.32,0,0,0-27.7-15.934,32.509,32.509,0,0,0-10.018,0L247.479,267.7Z" transform="translate(252.011 239.956)" fill="#fb6f6e"/>
          <path id="Path_37" data-name="Path 37" d="M261.1,252.681l-35.579-9.792a139.021,139.021,0,0,0-2.061,33.312l44.835,6.081Z" transform="translate(236.924 257.796)" fill="#fb6f6e"/>
          <path id="Path_38" data-name="Path 38" d="M256.5,304.34l-1.2.041,6.1,25.169,1.979-.6-6.122-25.272Z" transform="translate(270.967 322.317)" fill="#637abe"/>
          <path id="Path_39" data-name="Path 39" d="M247.674,268.311l.866-.783L238.5,226.3c-.68.1-1.361.247-2.061.412l10.039,41.372Z" transform="translate(250.95 240.188)" fill="#fc8c8b"/>
          <path id="Path_40" data-name="Path 40" d="M260.183,315.741l-6.2-25.561-.763.639-1.2.041,6.267,25.808.886-.041Z" transform="translate(267.486 307.988)" fill="#637abe"/>
          <path id="Path_41" data-name="Path 41" d="M256.585,300.914,251,277.95l-.783.68-1.175-.082,5.648,23.252.886-.041Z" transform="translate(264.323 295.008)" fill="#637abe"/>
          <path id="Path_42" data-name="Path 42" d="M250.711,276.62l-7.091-29.21-.886.783-1.134-.309,7.194,29.581.969.144Z" transform="translate(256.427 262.593)" fill="#fc8c8b"/>
          <path id="Path_43" data-name="Path 43" d="M254.389,291.857l-7.07-29.127-.763.8-1.216-.165,7.112,29.251.969.041Z" transform="translate(260.396 278.853)" fill="#637abe"/>
          <path id="Path_44" data-name="Path 44" d="M277.393,268.84l-3.814,21.974.969.536,1.051-.124,3.793-21.974-1.134.247Z" transform="translate(290.369 285.338)" fill="#fc8c8b"/>
          <path id="Path_45" data-name="Path 45" d="M275.332,280.55l-3.752,21.624.969.474,1.072-.144,3.731-21.583-1.072.144Z" transform="translate(288.247 297.767)" fill="#fc8c8b"/>
          <path id="Path_46" data-name="Path 46" d="M279.008,267.055l1.072-.433L284.2,242.36c-.618-.247-1.257-.453-1.917-.66h0l-4.226,24.448Z" transform="translate(295.124 256.533)" fill="#fc8c8b"/>
          <path id="Path_47" data-name="Path 47" d="M276.285,292.544l-.969-.474-7.586,43.825,2.206-.66,7.4-42.815Z" transform="translate(284.16 309.994)" fill="#637abe"/>
          <path id="Path_48" data-name="Path 48" d="M280.237,254.77l-4.617,26.715.969.721L277.62,282l4.638-26.839-1.175.474Z" transform="translate(292.535 270.405)" fill="#fc8c8b"/>
          <path id="Path_49" data-name="Path 49" d="M259.363,251.434l-34.59-9.523c-.165.68-.289,1.34-.433,2.061l35.579,9.792Z" transform="translate(238.108 256.756)" fill="#fc8c8b"/>
          <path id="Path_50" data-name="Path 50" d="M242.867,261.685l28.406-26.1c-.412-.557-.845-1.093-1.278-1.628L242.31,259.4Z" transform="translate(257.18 248.318)" fill="#fc8c8b"/>
          <path id="Path_51" data-name="Path 51" d="M243.907,248.6l-.557-2.309-.866.8-1.154-.309.557,2.288,1.134.309Z" transform="translate(256.14 261.405)" fill="#fc8c8b"/>
          <path id="Path_52" data-name="Path 52" d="M268.185,265.12l-44.855-6.06.124,2.061,45.35,6.184Z" transform="translate(237.036 274.958)" fill="#637abe"/>
          <path id="Path_53" data-name="Path 53" d="M246.618,281.315l32.549-33.889c-.227-.742-.474-1.484-.742-2.206L246,278.944Z" transform="translate(261.097 260.269)" fill="#fc8c8b"/>
          <path id="Path_54" data-name="Path 54" d="M247.584,263.951l-.577-2.371-.948.989-.969-.144.515,2.164,1.216.165Z" transform="translate(260.131 277.633)" fill="#637abe"/>
          <path id="Path_55" data-name="Path 55" d="M250.266,292.257l29.313-25.066V264.47L249.73,290.01Z" transform="translate(265.056 280.7)" fill="#fc8c8b"/>
          <path id="Path_56" data-name="Path 56" d="M273.541,278.758,225.47,275.79l.433,2.061,48.071,2.989Z" transform="translate(239.307 292.715)" fill="#637abe"/>
          <path id="Path_57" data-name="Path 57" d="M251.264,279.107l-.536-2.247-.969.8-.969-.041.515,2.082,1.175.082Z" transform="translate(264.058 293.851)" fill="#637abe"/>
          <path id="Path_58" data-name="Path 58" d="M264.787,324.683l.907-1.855.577.289v-24.53l-1.525-.845.99-1.814.536.309v-28.22l-1.649-1.237,1.237-1.649.412.309v-6.926c-.247,1.443-.474,2.948-.68,4.453-.412-2.762-.866-5.524-1.381-8.245v20.14l.371-.309,1.34,1.567-1.711,1.464v27.6l.35-.309,1.361,1.567L264.21,307.9v30.57l.35-.309,1.361,1.546-1.711,1.5V377.8l2.061-.618v-51.8Z" transform="translate(280.424 270.352)" fill="#fc4645"/>
          <path id="Path_59" data-name="Path 59" d="M265.921,265.887l-1.36-1.567-.35.309v2.721Z" transform="translate(280.424 280.58)" fill="#fc4645"/>
          <path id="Path_60" data-name="Path 60" d="M279.212,257.642l-.412,2.391,19.253-7.792c-.186-.68-.35-1.34-.557-2.061Z" transform="translate(295.91 265.533)" fill="#fc8c8b"/>
          <path id="Path_61" data-name="Path 61" d="M287.771,262.72l-17.645-17.79c-.412.557-.8,1.113-1.2,1.711l18.408,18.552Z" transform="translate(285.434 259.961)" fill="#fc8c8b"/>
          <path id="Path_62" data-name="Path 62" d="M278.293,253.56l-.433,2.494.845.866,1.175-.474.412-2.391-1.072.433Z" transform="translate(294.912 269.121)" fill="#fc8c8b"/>
          <path id="Path_63" data-name="Path 63" d="M276.4,272.757l24.86-5.236.247-2.061-24.736,5.195Z" transform="translate(293.362 281.751)" fill="#fc8c8b"/>
          <path id="Path_64" data-name="Path 64" d="M286.669,276.019l-21.459-16.1V262.5l21.067,15.811Z" transform="translate(281.486 275.871)" fill="#fc8c8b"/>
          <path id="Path_65" data-name="Path 65" d="M275.822,267.73l-.392,2.288.866.66,1.134-.247.392-2.185-1.031.206Z" transform="translate(292.333 284.16)" fill="#fc8c8b"/>
          <path id="Path_66" data-name="Path 66" d="M265.647,259.77l-1.237,1.649,1.649,1.237v-2.577Z" transform="translate(280.637 275.712)" fill="#fc8c8b"/>
          <path id="Path_67" data-name="Path 67" d="M282.464,284.467,265.21,274.82v2.35l16.883,9.462Z" transform="translate(281.486 291.685)" fill="#fc8c8b"/>
          <path id="Path_68" data-name="Path 68" d="M274.38,283.49l24.056-3.3c.186-.7.35-1.422.515-2.061l-24.2,3.319Z" transform="translate(291.218 295.199)" fill="#fc8c8b"/>
          <path id="Path_69" data-name="Path 69" d="M273.771,279.5l-.371,2.164.948.515,1.072-.144.371-2.123-1.051.124Z" transform="translate(290.178 296.653)" fill="#fc8c8b"/>
          <path id="Path_70" data-name="Path 70" d="M265.459,274.67l-.99,1.814,1.525.845v-2.35Z" transform="translate(280.7 291.526)" fill="#fc8c8b"/>
          <path id="Path_71" data-name="Path 71" d="M272.39,294.745l21.294-2.721.68-2.164-21.6,2.762Z" transform="translate(289.106 307.648)" fill="#637abe"/>
          <path id="Path_72" data-name="Path 72" d="M265.21,287.9v2.288L277.99,296.5l.35-2.123Z" transform="translate(281.486 305.568)" fill="#637abe"/>
          <path id="Path_73" data-name="Path 73" d="M271.76,291.04l-.35,2.123.969.474,1.051-.124.371-2.144-1.072.144Z" transform="translate(288.066 308.901)" fill="#637abe"/>
          <path id="Path_74" data-name="Path 74" d="M265.4,287.76l-.907,1.855,1.484.721v-2.288Z" transform="translate(280.721 305.42)" fill="#637abe"/>
          <path id="Path_75" data-name="Path 75" d="M275.555,289.52,229.38,291.4l.68,2.061,45.989-1.876Z" transform="translate(243.457 307.288)" fill="#637abe"/>
          <path id="Path_76" data-name="Path 76" d="M253.257,301.855l23.17-19.954V279.18L252.7,299.608Z" transform="translate(268.208 296.313)" fill="#637abe"/>
          <path id="Path_77" data-name="Path 77" d="M254.233,291.337l-.557-2.247-1.01.845-.886.041.495,2.041,1.2-.041Z" transform="translate(267.231 306.831)" fill="#637abe"/>
          <path id="Path_78" data-name="Path 78" d="M265.921,280.6l-1.36-1.567-.35.309v2.721Z" transform="translate(280.424 296.154)" fill="#637abe"/>
          <path id="Path_79" data-name="Path 79" d="M256.537,312.542l16.409-14.471V295.33L255.98,310.275Z" transform="translate(271.689 313.454)" fill="#637abe"/>
          <path id="Path_80" data-name="Path 80" d="M276.574,303l-41.784,1.608.989,2.061,41.227-1.587Z" transform="translate(249.199 321.595)" fill="#637abe"/>
          <path id="Path_81" data-name="Path 81" d="M255.946,303.466l-.886.041.495,2.041,1.2-.041.763-.66-.557-2.268Z" transform="translate(270.713 321.149)" fill="#bc5353"/>
          <path id="Path_82" data-name="Path 82" d="M265.921,296.726l-1.36-1.546-.35.309v2.742Z" transform="translate(280.424 313.295)" fill="#bc5353"/>
          <path id="Path_83" data-name="Path 83" d="M596.379,466.963s-14.43-98.08-102.409-113.169S416.71,214.507,296.614,219.5,201.276,339.962,153.493,365.852,83.51,466.86,83.51,466.86Z" transform="translate(88.635 232.81)" fill="#fc8c8b"/>
          <path id="Path_84" data-name="Path 84" d="M325,474.014s0-79.528,94.246-107.542S491.064,192.6,608.892,215.044s60.584,171.671,106.593,204.22,35.909,54.75,35.909,54.75Z" transform="translate(344.945 225.759)" fill="#fc8c8b"/>
          <path id="Path_85" data-name="Path 85" d="M134.123,458.851h3.566L73.107,227.4C52.946,235.5,134.123,458.851,134.123,458.851Z" transform="translate(74.178 241.355)" fill="#fda9a8"/>
          <path id="Path_86" data-name="Path 86" d="M116.273,477.03l61.552-176.02c-15.955-.783-36.589,68.025-46.2,103.728-3.236,12.884-5.36,20.882-5.36,20.882s2.061-8.41,5.36-20.882c12.925-51.534,43.433-181.73,25.19-194.078L108.77,476.886Z" transform="translate(115.445 223.588)" fill="#fda9a8"/>
          <path id="Path_87" data-name="Path 87" d="M139.671,501.662,134.187,187.2c-22.242,15.048-2.8,273.028-2.8,273.028S93.578,274.87,72.47,269.923l64.624,231.7Z" transform="translate(76.917 198.688)" fill="#fda9a8"/>
          <path id="Path_88" data-name="Path 88" d="M122.62,304.81c-3.36,12.471-5.36,20.882-5.36,20.882S119.383,317.694,122.62,304.81Z" transform="translate(124.456 323.516)" fill="#a0abe9"/>
          <path id="Path_89" data-name="Path 89" d="M112.345,502.116,160.54,235.148C135.329,230.757,112.283,460.6,112.283,460.6s16.7-273.75-8.843-273.75h0l5.483,315.2Z" transform="translate(109.788 198.317)" fill="#fda9a8"/>
          <path id="Path_90" data-name="Path 90" d="M120.3,430.46s76.621-163.817,55.018-175.484l-.453-.206L113.46,430.337Z" transform="translate(120.423 270.405)" fill="#fda9a8"/>
          <path id="Path_91" data-name="Path 91" d="M138.219,459.11,73.6,227.412a3.4,3.4,0,0,0-2.061,0H71.41l64.583,231.512Z" transform="translate(75.792 241.199)" fill="#fb6f6e"/>
          <path id="Path_92" data-name="Path 92" d="M109.955,502.064l-5.483-315.2a3.752,3.752,0,0,0-2.061.7l5.483,314.462Z" transform="translate(108.695 198.327)" fill="#fb6f6e"/>
          <path id="Path_93" data-name="Path 93" d="M109.842,477.289l48.051-266.226a5.545,5.545,0,0,0-1.093-.577,4.572,4.572,0,0,0-.845-.206L107.76,477.248Z" transform="translate(114.373 223.185)" fill="#fb6f6e"/>
          <path id="Path_94" data-name="Path 94" d="M114.6,430.531,176,254.964a5.463,5.463,0,0,0-2.061-.474L112.39,430.51Z" transform="translate(119.287 270.108)" fill="#fb6f6e"/>
          <path id="Path_95" data-name="Path 95" d="M512.123,502.116,560.4,235.148c-25.21-4.391-48.257,225.452-48.257,225.452s16.7-273.75-8.843-273.75h0l5.483,315.2Z" transform="translate(534.187 198.317)" fill="#fda9a8"/>
          <path id="Path_96" data-name="Path 96" d="M516.093,477.03l61.552-176.02c-15.955-.783-36.589,68.025-46.2,103.728-3.236,12.884-5.359,20.882-5.359,20.882s2.061-8.41,5.359-20.882C544.375,353.2,574.9,223.008,556.64,210.66L508.59,476.886Z" transform="translate(539.802 223.588)" fill="#fda9a8"/>
          <path id="Path_97" data-name="Path 97" d="M522.44,304.81c-3.36,12.471-5.359,20.882-5.359,20.882S519.2,317.694,522.44,304.81Z" transform="translate(548.813 323.516)" fill="#a0abe9"/>
          <path id="Path_98" data-name="Path 98" d="M520.124,430.46s76.621-163.817,55.018-175.484l-.453-.206L513.28,430.337Z" transform="translate(544.78 270.405)" fill="#fda9a8"/>
          <path id="Path_99" data-name="Path 99" d="M533.943,458.851h3.566L472.926,227.4C452.766,235.5,533.943,458.851,533.943,458.851Z" transform="translate(498.535 241.355)" fill="#fda9a8"/>
          <path id="Path_100" data-name="Path 100" d="M539.491,501.662,534.007,187.2c-22.242,15.048-2.8,273.028-2.8,273.028S493.4,274.87,472.29,269.923l64.624,231.7Z" transform="translate(501.274 198.688)" fill="#fda9a8"/>
          <path id="Path_101" data-name="Path 101" d="M538.039,459.11l-64.624-231.7a3.4,3.4,0,0,0-2.061,0h-.124L535.9,459.069Z" transform="translate(500.149 241.199)" fill="#fb6f6e"/>
          <path id="Path_102" data-name="Path 102" d="M509.775,502.064l-5.483-315.2a3.752,3.752,0,0,0-2.061.7l5.483,314.462Z" transform="translate(533.051 198.327)" fill="#fb6f6e"/>
          <path id="Path_103" data-name="Path 103" d="M509.662,477.289l48.051-266.226a5.543,5.543,0,0,0-1.093-.577,4.584,4.584,0,0,0-.845-.206L507.58,477.248Z" transform="translate(538.73 223.185)" fill="#fb6f6e"/>
          <path id="Path_104" data-name="Path 104" d="M514.416,430.531l61.408-175.567a5.463,5.463,0,0,0-2.062-.474L512.21,430.51Z" transform="translate(543.644 270.108)" fill="#fb6f6e"/>
          <path id="Path_105" data-name="Path 105" d="M138,237.07l49.8,209.806h3.978l12.183-61.532C204.52,360.422,200.4,288.46,138,237.07Z" transform="translate(146.469 251.619)" fill="#fb6f6e"/>
          <path id="Path_106" data-name="Path 106" d="M173.244,392.224l22.036-.185L103.92,288.97C126.76,370.373,173.244,392.224,173.244,392.224Z" transform="translate(110.297 306.704)" fill="#fb6f6e"/>
          <path id="Path_107" data-name="Path 107" d="M104.17,287.76,197.756,393.3h5.813L174.71,334.058C163.785,317.341,140.759,290.419,104.17,287.76Z" transform="translate(110.563 305.42)" fill="#fb6f6e"/>
          <path id="Path_108" data-name="Path 108" d="M146.208,383.186l30.756,63,15.666-.124-49.473-208.2C120.3,295.063,135.963,354.822,146.208,383.186Z" transform="translate(139.436 252.457)" fill="#fb6f6e"/>
          <path id="Path_109" data-name="Path 109" d="M192.787,407.849S263.1,380.66,264.337,273.51L171.39,408.035Z" transform="translate(181.908 290.295)" fill="#fb6f6e"/>
          <path id="Path_110" data-name="Path 110" d="M176.933,349.6l-11.873,59.78h10.534L270.417,272.3C203.381,300.252,182.87,334.9,176.933,349.6Z" transform="translate(175.19 289.011)" fill="#fb6f6e"/>
          <path id="Path_111" data-name="Path 111" d="M103.56,287.71l.742,2.639,91.36,103.068H198.4L104.817,287.875Z" transform="translate(109.915 305.367)" fill="#fc8c8b"/>
          <path id="Path_112" data-name="Path 112" d="M138.017,236.74c-.309.742-.618,1.5-.907,2.247l49.473,208.2h2.061l-49.7-209.765Z" transform="translate(145.524 251.269)" fill="#fc8c8b"/>
          <path id="Path_113" data-name="Path 113" d="M264.943,272.45,170.12,409.531h2.515l92.947-134.525V272.12Z" transform="translate(180.56 288.82)" fill="#fc8c8b"/>
          <path id="Path_114" data-name="Path 114" d="M141.6,315.85l.68,1.464S142.053,316.778,141.6,315.85Z" transform="translate(150.29 335.233)" fill="#637abe"/>
          <path id="Path_115" data-name="Path 115" d="M145.049,323.789c.453.928.68,1.464.68,1.464l-.68-1.464a112.487,112.487,0,0,0-6.7-11.667l28.859,59.244h2.268l-30.756-63C141.566,316,143.936,321.377,145.049,323.789Z" transform="translate(146.84 327.294)" fill="#fc4645"/>
          <path id="Path_116" data-name="Path 116" d="M175.77,317.834s.392-3.236.536-8.864L164,370.522h2.061l11.873-59.78a40.312,40.312,0,0,0-2.164,7.091Z" transform="translate(174.065 327.931)" fill="#fc4645"/>
          <path id="Path_117" data-name="Path 117" d="M464.256,403.693,475.2,451.97h5.442l31.869-216.65C456.547,291.616,459.268,368.649,464.256,403.693Z" transform="translate(490.158 249.761)" fill="#fb6f6e"/>
          <path id="Path_118" data-name="Path 118" d="M426.42,268.9l81.589,147.429h2.556l-12.1-53.266C488.9,335.42,467.75,290.812,426.42,268.9Z" transform="translate(452.589 285.402)" fill="#fb6f6e"/>
          <path id="Path_119" data-name="Path 119" d="M494.316,415.724H506.54L425.59,269.47C426.435,382.722,494.316,415.724,494.316,415.724Z" transform="translate(451.708 286.007)" fill="#fb6f6e"/>
          <path id="Path_120" data-name="Path 120" d="M494.6,398.212s55.657-25.932,81.074-112.242L485.49,398.212Z" transform="translate(515.284 303.52)" fill="#fb6f6e"/>
          <path id="Path_121" data-name="Path 121" d="M499.223,354.427,482.34,399.613h3.855L578.523,284.65C534.658,298.358,510.5,332.783,499.223,354.427Z" transform="translate(511.941 302.119)" fill="#fb6f6e"/>
          <path id="Path_122" data-name="Path 122" d="M503.428,236.5,471.91,450.717H491.2l16.9-45.35C517.446,372.1,531.566,299.949,503.428,236.5Z" transform="translate(500.871 251.014)" fill="#fb6f6e"/>
          <path id="Path_123" data-name="Path 123" d="M425.58,268.46v2.061l80.95,146.254H508.9L427.312,269.367Z" transform="translate(451.697 284.935)" fill="#fc8c8b"/>
          <path id="Path_124" data-name="Path 124" d="M503.2,235.1l-.433.454L470.9,452.2h2.061L504.5,237.986C504.088,236.955,503.655,236.069,503.2,235.1Z" transform="translate(499.799 249.528)" fill="#fc8c8b"/>
          <path id="Path_125" data-name="Path 125" d="M576.56,284.852,484.19,399.814h2.639l90.226-112.18c.309-1.051.639-2.061.948-3.174A10.829,10.829,0,0,0,576.56,284.852Z" transform="translate(513.904 301.917)" fill="#fc8c8b"/>
          <path id="Path_126" data-name="Path 126" d="M466.977,333.277c.8,3.257,1.154,5.092,1.154,5.092s-.474-1.793-1.154-5.092c-1.051-4.123-2.845-10.74-5.607-18.7l12.1,53.266h2.061l-10.8-48.277C465.431,325.382,466.3,330.061,466.977,333.277Z" transform="translate(489.684 333.885)" fill="#637abe"/>
          <path id="Path_127" data-name="Path 127" d="M464.09,323.65c.68,3.3,1.154,5.092,1.154,5.092S464.894,326.907,464.09,323.65Z" transform="translate(492.571 343.512)" fill="#637abe"/>
          <path id="Path_128" data-name="Path 128" d="M493.514,333.57c-.825,2.371-1.319,3.628-1.319,3.628s.433-1.34,1.319-3.628c1.093-3.175,2.783-8.349,4.659-15.11l-16.9,45.35h2.206l16.883-45.185a143.2,143.2,0,0,0-6.844,14.945Z" transform="translate(510.805 338.004)" fill="#fc4645"/>
          <path id="Path_129" data-name="Path 129" d="M487.889,325.79c-.886,2.288-1.319,3.628-1.319,3.628S487.065,328.161,487.889,325.79Z" transform="translate(516.43 345.783)" fill="#637abe"/>
          <path id="Path_130" data-name="Path 130" d="M565.463,311.05c-348.5,0-495.2,57.615-495.2,57.615s146.708,24.18,495.2,24.18,495.2-24.18,495.2-24.18S913.978,311.05,565.463,311.05Z" transform="translate(74.572 330.139)" fill="#fdc5c5"/>
          <path id="Path_131" data-name="Path 131" d="M407.068,243.47,395.05,431.755h12.142l31.621-157.695,18.573,157.695h11.379l.66-188.285Z" transform="translate(419.294 258.412)" fill="#fff8f8"/>
          <path id="Path_132" data-name="Path 132" d="M380.906,259.513l-.165,1.361-8.019,66.273H527.51L512.648,261.7,488.1,181.387l-56.956,10.266-1.175.227-1.175-.247L353.51,175.78l26.983,82.455Z" transform="translate(375.205 186.567)" fill="#fee2e2"/>
          <path id="Path_133" data-name="Path 133" d="M539.87,337.482l-16.615-73.137-26.2-85.732L434.76,189.847,349.09,171.81l30.261,92.535-8.843,73.137ZM433.421,195.846l1.175.247,1.175-.227,56.956-10.307,24.551,80.393L532.14,331.4H377.413l8.019-66.273.165-1.36-.412-1.278L358.2,180.035Z" transform="translate(370.513 182.354)" fill="#fff"/>
          <path id="Path_134" data-name="Path 134" d="M9.647,0h0a9.647,9.647,0,0,1,9.647,9.647V25.726H0V9.647A9.647,9.647,0,0,1,9.647,0Z" transform="translate(867.651 415.057) rotate(180)" fill="#fee2e2"/>
          <path id="Path_135" data-name="Path 135" d="M509.712,212.71,435.751,217.1l-67.427,3.834-8.843,73.137H528.842Z" transform="translate(381.541 225.764)" fill="#fee2e2" opacity="0.7"/>
          <path id="Path_136" data-name="Path 136" d="M391.157,189.1c-1.793,0-3.752,1.67-5.607,3.958h11.234C394.929,190.77,392.971,189.1,391.157,189.1Z" transform="translate(409.211 200.705)" fill="#fff"/>
          <path id="Path_137" data-name="Path 137" d="M408.37,204.172A69.823,69.823,0,0,0,400.722,191H389.488a68.585,68.585,0,0,0-7.648,13.131Z" transform="translate(405.273 202.721)" fill="#fb6f6e"/>
          <path id="Path_138" data-name="Path 138" d="M383.422,191.84a5.834,5.834,0,0,0-3.752,2.638h7.524a5.833,5.833,0,0,0-3.772-2.639Z" transform="translate(402.97 203.613)" fill="#fff"/>
          <path id="Path_139" data-name="Path 139" d="M394.938,201.922a46.313,46.313,0,0,0-5.112-8.8H382.3a46.323,46.323,0,0,0-5.112,8.8Z" transform="translate(400.338 204.972)" fill="#fb6f6e"/>
          <path id="Path_140" data-name="Path 140" d="M396.992,191.84c-1.216,0-2.515,1.113-3.772,2.639h7.545a5.916,5.916,0,0,0-3.772-2.638Z" transform="translate(417.352 203.613)" fill="#fff"/>
          <path id="Path_141" data-name="Path 141" d="M408.509,201.922a46.319,46.319,0,0,0-5.112-8.8h-7.545a46.315,46.315,0,0,0-5.112,8.8Z" transform="translate(414.719 204.972)" fill="#fb6f6e"/>
          <path id="Path_142" data-name="Path 142" d="M433.183,203.644a28.467,28.467,0,0,0-12.245,12.616c-31.951-19.851-58.275-15.914-59.388-15.708l1.175,3.649c.268,0,25.85-4.556,56.873,14.842a48.237,48.237,0,0,0-2.247,6.184c-7.751,26.489-47.082,29.952-47.411,29.993l-.453,3.071c1.4-.1,28.468-2.453,43.124-18.552,5.236,4.02,26.653,23.376,13.358,61.573h3.278c13.667-39.166-8.7-59.388-14.677-63.9a33.6,33.6,0,0,0,5.627-11.338c2.865-9.792,7.545-16.223,14.306-19.707,9.565-4.927,23.417-3.937,43.619,3.133l1.01-2.907C458.187,199.253,443.551,198.3,433.183,203.644Z" transform="translate(383.738 212.382)" fill="#bc5353"/>
          <path id="Path_143" data-name="Path 143" d="M365.84,240.723s12.595-12.616,26.076-3.875,16.821,2.639,22.819,8.637c8.06,8.039.536,20.119.536,20.119H362.83Z" transform="translate(385.097 248.11)" fill="#fb6f6e"/>
          <path id="Path_144" data-name="Path 144" d="M434.74,189.847,447.6,265.334l8.245,72.148H370.508l8.843-73.137L349.09,171.81Z" transform="translate(370.513 182.354)" fill="#e0eefb" opacity="0.5"/>
          <path id="Path_145" data-name="Path 145" d="M419.45,213.65l19.274,39.578a9.73,9.73,0,0,0,6.658,5.257h0a9.73,9.73,0,0,0,11.894-10.41c-2.247-20.057-19.768-47.185-19.768-47.185Z" transform="translate(445.191 213.218)" fill="#f3a9b8"/>
          <path id="Path_146" data-name="Path 146" d="M400.274,243.07a8.382,8.382,0,0,0-.144-1.01" transform="translate(424.686 256.915)" fill="none" stroke="#2e3154" stroke-miterlimit="10" stroke-width="0.5"/>
          <path id="Path_147" data-name="Path 147" d="M425.035,287.3c-1.67-5.9-7.751-18.552-29.065-20.387-18.078-1.567-26.963-15.048-12.636-36.136,13.791-20.284,18.758-16.326,19.13-33.229" transform="translate(399.306 209.673)" fill="none" stroke="#2e3154" stroke-miterlimit="10" stroke-width="0.5" stroke-dasharray="1.001 1.001"/>
          <path id="Path_148" data-name="Path 148" d="M389,197.531V196.5" transform="translate(412.873 208.559)" fill="none" stroke="#2e3154" stroke-miterlimit="10" stroke-width="0.5"/>
          <path id="Path_149" data-name="Path 149" d="M386.68,200.293a4.453,4.453,0,1,0,4.453-4.453A4.453,4.453,0,0,0,386.68,200.293Z" transform="translate(410.41 207.859)" fill="#bc5353"/>
          <path id="Path_150" data-name="Path 150" d="M419.97,170.968s-14.43,2.721-14.43,25.85,12.636,22.448,21.624,16.676,13.193-20.078,7.029-33.353S419.97,170.968,419.97,170.968Z" transform="translate(430.428 180.825)" fill="#fff8f8"/>
          <path id="Path_151" data-name="Path 151" d="M431.141,195.118S409.414,193.7,405.539,218c-3.154,19.83,3.546,27.767,2.989,44.526-.268,8-7.648,22.675-7.648,32.281h62.356s-1.752-10.018-6.823-32.281c-1.319-5.792,1.69-12.7,4.02-20.387C471.461,205.487,448.353,195.118,431.141,195.118Z" transform="translate(425.482 207.076)" fill="#3f1c1c"/>
          <path id="Path_152" data-name="Path 152" d="M420.744,198.613s-14.842,1.361-16.491-16.12,21.211-22.861,35.311-8.761c3.917-13.3,23.912-9.73,20.222,8.431,8.245,11.977-.557,15.233-5.195,15.233,0,18.8-12.1,25.6-22.469,22.345S420.744,198.613,420.744,198.613Z" transform="translate(428.972 175.855)" fill="#fb6f6e"/>
          <path id="Path_153" data-name="Path 153" d="M439.743,206.161l-21.6,36.424L370.728,235.7l-1.278,6.988s27.334,17.315,53.6,14.43c14.924-1.628,28.57-28.158,34.61-41.7a10.1,10.1,0,0,0-3.463-12.471h0a10.162,10.162,0,0,0-14.45,3.216Z" transform="translate(392.123 213.534)" fill="#fff8f8"/>
          <path id="Path_154" data-name="Path 154" d="M412.974,181.682a4.494,4.494,0,0,1,5.092,4.8c0,5.36-6.576,5.9-6.576,5.9Z" transform="translate(436.743 192.787)" fill="#fff8f8"/>
          <path id="Path_155" data-name="Path 155" d="M407.519,239.471s-11.729,23.52-11.729,61.965c16.326,7.813,38.939,5.772,38.939,5.772L437.9,286.8l1.773,20.614s20.408,4.865,38.094-5.339c1.113-39.166-10.74-62.645-10.74-62.645S444.747,247.243,407.519,239.471Z" transform="translate(420.079 254.124)" fill="#7e3837"/>
          <path id="Path_156" data-name="Path 156" d="M402.2,349.34v-26.2H425.5l-4.638,32.693H386.27S389.836,349.34,402.2,349.34Z" transform="translate(409.975 342.971)" fill="#7e3837"/>
          <path id="Path_157" data-name="Path 157" d="M445.924,349.34v-26.2H422.61l4.576,32.693h34.652S458.457,349.34,445.924,349.34Z" transform="translate(448.545 342.971)" fill="#7e3837"/>
          <path id="Path_158" data-name="Path 158" d="M427.252,199.11S408.7,231.762,408.7,267.836s75.034,35.559,75.034,0-14.265-68.726-14.265-68.726Z" transform="translate(433.782 211.329)" fill="#fc8c8b"/>
          <path id="Path_159" data-name="Path 159" d="M419.836,219.19h49.1a12.8,12.8,0,0,0,12.76-12.76h0a12.8,12.8,0,0,0-12.76-12.76h-48.5a10.925,10.925,0,0,0-10.884,10.884v4.35a10.307,10.307,0,0,0,10.286,10.286Z" transform="translate(434.684 205.555)" fill="#fb6f6e"/>
          <path id="Path_160" data-name="Path 160" d="M412.437,222.3s-16.491,34.693,7.689,34.693S433.463,222.3,433.463,222.3Z" transform="translate(431.921 235.942)" fill="#fb6f6e"/>
          <path id="Path_161" data-name="Path 161" d="M429.142,222.3s-14.883,34.693,11.647,34.693,31.395-1.216,31.395-17.006-6.8-17.687-6.8-17.687Z" transform="translate(451.062 235.942)" fill="#fb6f6e"/>
          <path id="Path_162" data-name="Path 162" d="M409.21,206.3c0,6.906,4.226,12.513,9.462,12.513s9.441-5.607,9.441-12.513-4.226-12.513-9.441-12.513S409.21,199.4,409.21,206.3Z" transform="translate(434.323 205.683)" fill="#bc5353"/>
          <path id="Path_163" data-name="Path 163" d="M421,193.67s11.564,13.832,0,25.52h5.875s12.224-12.863-.309-25.52" transform="translate(446.836 205.555)" fill="#fda9a8"/>
          <path id="Path_164" data-name="Path 164" d="M434.58,193.67s11.585,13.832,0,25.52h5.9s12.224-12.863-.309-25.52" transform="translate(461.25 205.555)" fill="#fda9a8"/>
          <path id="Path_165" data-name="Path 165" d="M380.54,222.564s-6.844-8.637-8.452-8.06,1.608,4.844,1.608,4.844-9.482-1.443-10.822-1.443-.371,2.577,1.9,3.133c-2.061,2.061.474,6.947,7.421,7.5s8.926-.557,8.926-.557Z" transform="translate(384.496 227.639)" fill="#fff8f8"/>
          <path id="Path_166" data-name="Path 166" d="M422.138,170.55s-5.112,8.245,4.659,12.739c-2.412,5.174,3.175,10.74,9.214,8.637" transform="translate(446.626 181.017)" fill="none" stroke="#2e3154" stroke-miterlimit="10" stroke-width="0.5"/>
          <path id="Path_169" data-name="Path 169" d="M14.031,0H4.656V-45.5h9.375ZM27.25-43.406l-.906,12.625H20.625V-48H27.25Zm13.063,9.594.281,3.781a11.883,11.883,0,0,1,9.719-4.406q6.531,0,8.969,5.156a11.61,11.61,0,0,1,10.156-5.156q5.5,0,8.188,3.2t2.688,9.641V0H71.25V-21.562a6.438,6.438,0,0,0-1.125-4.2Q69-27.094,66.156-27.094a5.637,5.637,0,0,0-5.625,3.875L60.563,0H51.531V-21.531a6.36,6.36,0,0,0-1.156-4.25q-1.156-1.312-3.937-1.312a5.853,5.853,0,0,0-5.562,3.188V0H31.844V-33.812ZM121.5-9.344a2.91,2.91,0,0,0-1.641-2.609,18.636,18.636,0,0,0-5.266-1.7q-12.062-2.531-12.062-10.25a9.291,9.291,0,0,1,3.734-7.516,15.064,15.064,0,0,1,9.766-3.016q6.437,0,10.3,3.031a9.553,9.553,0,0,1,3.859,7.875h-9.031a4.37,4.37,0,0,0-1.25-3.2A5.29,5.29,0,0,0,116-28a5.405,5.405,0,0,0-3.531,1.031,3.255,3.255,0,0,0-1.25,2.625,2.783,2.783,0,0,0,1.422,2.422,14.627,14.627,0,0,0,4.8,1.594,39.18,39.18,0,0,1,5.688,1.516q7.156,2.625,7.156,9.094a8.82,8.82,0,0,1-3.969,7.484A17.12,17.12,0,0,1,116.063.625a17.882,17.882,0,0,1-7.547-1.516,12.662,12.662,0,0,1-5.172-4.156,9.657,9.657,0,0,1-1.875-5.7h8.563a4.715,4.715,0,0,0,1.781,3.688,7.065,7.065,0,0,0,4.438,1.281,6.539,6.539,0,0,0,3.922-.984A3.063,3.063,0,0,0,121.5-9.344Zm13.188-7.875a20.053,20.053,0,0,1,1.938-8.969,14.184,14.184,0,0,1,5.578-6.094,16.274,16.274,0,0,1,8.453-2.156,15.4,15.4,0,0,1,11.172,4.188q4.328,4.188,4.828,11.375l.063,2.313q0,7.781-4.344,12.484T150.719.625q-7.312,0-11.672-4.687t-4.359-12.75Zm9.031.641q0,4.82,1.813,7.371a5.979,5.979,0,0,0,5.188,2.551,5.993,5.993,0,0,0,5.125-2.52q1.844-2.52,1.844-8.059,0-4.726-1.844-7.324a5.993,5.993,0,0,0-5.187-2.6,5.9,5.9,0,0,0-5.125,2.582Q143.719-21.992,143.719-16.578Zm47.563-8.766a24.536,24.536,0,0,0-3.25-.25q-5.125,0-6.719,3.469V0h-9.031V-33.812h8.531l.25,4.031q2.719-4.656,7.531-4.656a9.463,9.463,0,0,1,2.813.406Zm23.344,0a24.536,24.536,0,0,0-3.25-.25q-5.125,0-6.719,3.469V0h-9.031V-33.812h8.531l.25,4.031q2.719-4.656,7.531-4.656a9.463,9.463,0,0,1,2.813.406Zm17.531,12.563,6.25-21.031h9.688L234.5,5.25l-.75,1.781q-3.031,6.625-10,6.625a14.21,14.21,0,0,1-4-.594V6.219l1.375.031a7.43,7.43,0,0,0,3.828-.781,5.132,5.132,0,0,0,1.984-2.594L228,.094,216.156-33.812h9.719Zm35.875,8.344a4.547,4.547,0,0,1,1.453-3.5,5.156,5.156,0,0,1,3.641-1.344A5.2,5.2,0,0,1,276.8-7.937a4.547,4.547,0,0,1,1.453,3.5,4.485,4.485,0,0,1-1.437,3.453A5.22,5.22,0,0,1,273.125.344a5.177,5.177,0,0,1-3.656-1.328A4.485,4.485,0,0,1,268.031-4.437Zm0-25.594a4.547,4.547,0,0,1,1.453-3.5,5.156,5.156,0,0,1,3.641-1.344,5.2,5.2,0,0,1,3.672,1.344,4.547,4.547,0,0,1,1.453,3.5,4.485,4.485,0,0,1-1.437,3.453,5.22,5.22,0,0,1-3.687,1.328,5.177,5.177,0,0,1-3.656-1.328A4.485,4.485,0,0,1,268.031-30.031ZM286.063-18.5a47.958,47.958,0,0,1,1.906-13.625,35.956,35.956,0,0,1,5.625-11.453,21,21,0,0,1,8.063-6.922l1.75,4.875q-4.562,3.375-7.125,10.438a48.327,48.327,0,0,0-2.562,16.5v.969A49.252,49.252,0,0,0,296.25-1.156q2.531,7.094,7.156,10.594l-1.75,4.781a21.012,21.012,0,0,1-7.922-6.734,35.354,35.354,0,0,1-5.609-11.141,47.674,47.674,0,0,1-2.062-13.187Z" transform="translate(628 125)" fill="#fff"/>
          <path id="Path_170" data-name="Path 170" d="M19.156,11.047H12.188V30H7.5V11.047H.625V7.25H19.156Zm6.781,3.891a5.636,5.636,0,0,1,4.516-2.156q5.5,0,5.578,6.391V30H31.516V19.3a3.141,3.141,0,0,0-.625-2.148,2.68,2.68,0,0,0-2.078-.7,3.073,3.073,0,0,0-2.875,1.531V30H21.422V6h4.516ZM47.219,30.313a8.3,8.3,0,0,1-6.055-2.281,8.109,8.109,0,0,1-2.336-6.078v-.437a10.213,10.213,0,0,1,.984-4.555A7.224,7.224,0,0,1,42.6,13.867a7.828,7.828,0,0,1,4.117-1.086,7.016,7.016,0,0,1,5.461,2.188,8.889,8.889,0,0,1,1.992,6.2v1.844H43.406a4.2,4.2,0,0,0,1.32,2.656,3.991,3.991,0,0,0,2.789,1,4.874,4.874,0,0,0,4.078-1.891l2.219,2.484a6.779,6.779,0,0,1-2.75,2.242A9.022,9.022,0,0,1,47.219,30.313ZM46.7,16.422a2.822,2.822,0,0,0-2.18.91,4.714,4.714,0,0,0-1.07,2.605h6.281v-.361a3.362,3.362,0,0,0-.812-2.331A2.911,2.911,0,0,0,46.7,16.422Zm17.3,5a10.188,10.188,0,0,1,1.773-6.3,5.754,5.754,0,0,1,4.852-2.344A5.178,5.178,0,0,1,74.7,14.625V6h4.531V30H75.156l-.219-1.8a5.314,5.314,0,0,1-4.344,2.109A5.739,5.739,0,0,1,65.8,27.961,10.517,10.517,0,0,1,64,21.422Zm4.516.336a6.674,6.674,0,0,0,.828,3.646,2.7,2.7,0,0,0,2.406,1.268A3.022,3.022,0,0,0,74.7,24.9V18.221a2.978,2.978,0,0,0-2.922-1.768Q68.516,16.453,68.516,21.758Zm22,8.554a8.3,8.3,0,0,1-6.055-2.281,8.109,8.109,0,0,1-2.336-6.078v-.437a10.213,10.213,0,0,1,.984-4.555A7.224,7.224,0,0,1,85.9,13.867a7.828,7.828,0,0,1,4.117-1.086,7.016,7.016,0,0,1,5.461,2.188,8.889,8.889,0,0,1,1.992,6.2v1.844H86.7a4.2,4.2,0,0,0,1.32,2.656,3.991,3.991,0,0,0,2.789,1,4.874,4.874,0,0,0,4.078-1.891l2.219,2.484a6.779,6.779,0,0,1-2.75,2.242A9.022,9.022,0,0,1,90.516,30.313ZM90,16.422a2.822,2.822,0,0,0-2.18.91,4.714,4.714,0,0,0-1.07,2.605h6.281v-.361a3.362,3.362,0,0,0-.812-2.331A2.911,2.911,0,0,0,90,16.422Zm19.188,8.906a1.455,1.455,0,0,0-.82-1.3,9.318,9.318,0,0,0-2.633-.852Q99.7,21.906,99.7,18.047a4.645,4.645,0,0,1,1.867-3.758,7.532,7.532,0,0,1,4.883-1.508A8.107,8.107,0,0,1,111.6,14.3a4.777,4.777,0,0,1,1.93,3.938h-4.516a2.185,2.185,0,0,0-.625-1.6A2.645,2.645,0,0,0,106.438,16a2.7,2.7,0,0,0-1.766.516,1.628,1.628,0,0,0-.625,1.313,1.391,1.391,0,0,0,.711,1.211,7.314,7.314,0,0,0,2.4.8,19.59,19.59,0,0,1,2.844.758q3.578,1.313,3.578,4.547a4.41,4.41,0,0,1-1.984,3.742,8.56,8.56,0,0,1-5.125,1.43,8.941,8.941,0,0,1-3.773-.758,6.331,6.331,0,0,1-2.586-2.078,4.829,4.829,0,0,1-.937-2.852h4.281a2.357,2.357,0,0,0,.891,1.844,3.533,3.533,0,0,0,2.219.641,3.27,3.27,0,0,0,1.961-.492A1.531,1.531,0,0,0,109.188,25.328Zm12.7-16.391v4.156h2.891v3.313h-2.891v8.438a2.015,2.015,0,0,0,.359,1.344,1.8,1.8,0,0,0,1.375.406,7.2,7.2,0,0,0,1.328-.109v3.422a9.3,9.3,0,0,1-2.734.406q-4.75,0-4.844-4.8V16.406h-2.469V13.094h2.469V8.938ZM132.063,30h-4.531V13.094h4.531Zm-4.8-21.281a2.224,2.224,0,0,1,.68-1.672,2.929,2.929,0,0,1,3.7,0,2.211,2.211,0,0,1,.688,1.672,2.217,2.217,0,0,1-.7,1.688,2.9,2.9,0,0,1-3.672,0A2.217,2.217,0,0,1,127.266,8.719Zm12.672,4.375.141,1.953a5.9,5.9,0,0,1,4.859-2.266,4.905,4.905,0,0,1,4,1.578,7.363,7.363,0,0,1,1.344,4.719V30h-4.516V19.188a2.929,2.929,0,0,0-.625-2.086,2.8,2.8,0,0,0-2.078-.648,3.107,3.107,0,0,0-2.859,1.625V30h-4.516V13.094ZM163.5,30a5.015,5.015,0,0,1-.453-1.516,5.464,5.464,0,0,1-4.266,1.828,6,6,0,0,1-4.117-1.437,4.623,4.623,0,0,1-1.633-3.625,4.778,4.778,0,0,1,1.992-4.125,9.83,9.83,0,0,1,5.758-1.453h2.078V18.7a2.786,2.786,0,0,0-.6-1.875,2.367,2.367,0,0,0-1.9-.7,2.69,2.69,0,0,0-1.789.547,1.858,1.858,0,0,0-.648,1.5h-4.516a4.536,4.536,0,0,1,.906-2.719,5.99,5.99,0,0,1,2.563-1.961,9.339,9.339,0,0,1,3.719-.711,7.378,7.378,0,0,1,4.961,1.57,5.493,5.493,0,0,1,1.836,4.414v7.328a8.083,8.083,0,0,0,.672,3.641V30Zm-3.734-3.141a3.889,3.889,0,0,0,1.844-.445,2.925,2.925,0,0,0,1.25-1.2V22.313h-1.687q-3.391,0-3.609,2.344l-.016.266a1.808,1.808,0,0,0,.594,1.391A2.306,2.306,0,0,0,159.766,26.859Zm16.5-17.922v4.156h2.891v3.313h-2.891v8.438a2.015,2.015,0,0,0,.359,1.344,1.8,1.8,0,0,0,1.375.406,7.2,7.2,0,0,0,1.328-.109v3.422a9.3,9.3,0,0,1-2.734.406q-4.75,0-4.844-4.8V16.406h-2.469V13.094h2.469V8.938ZM186.438,30h-4.531V13.094h4.531Zm-4.8-21.281a2.224,2.224,0,0,1,.68-1.672,2.929,2.929,0,0,1,3.7,0,2.211,2.211,0,0,1,.688,1.672,2.217,2.217,0,0,1-.7,1.688,2.9,2.9,0,0,1-3.672,0A2.217,2.217,0,0,1,181.641,8.719Zm7.813,12.672a10.026,10.026,0,0,1,.969-4.484,7.092,7.092,0,0,1,2.789-3.047,8.137,8.137,0,0,1,4.227-1.078,7.7,7.7,0,0,1,5.586,2.094,8.4,8.4,0,0,1,2.414,5.688l.031,1.156a8.836,8.836,0,0,1-2.172,6.242,8.418,8.418,0,0,1-11.664.008,8.992,8.992,0,0,1-2.18-6.375Zm4.516.321a6.319,6.319,0,0,0,.906,3.685,3.256,3.256,0,0,0,5.156.016,6.915,6.915,0,0,0,.922-4.03,6.256,6.256,0,0,0-.922-3.662,3,3,0,0,0-2.594-1.3,2.948,2.948,0,0,0-2.562,1.291A7.031,7.031,0,0,0,193.969,21.711Zm18.438-8.617.141,1.953a5.9,5.9,0,0,1,4.859-2.266,4.905,4.905,0,0,1,4,1.578,7.363,7.363,0,0,1,1.344,4.719V30h-4.516V19.188a2.929,2.929,0,0,0-.625-2.086,2.8,2.8,0,0,0-2.078-.648,3.107,3.107,0,0,0-2.859,1.625V30h-4.516V13.094Zm28.047,10.516,3.125-10.516h4.844l-6.8,19.531-.375.891a5.153,5.153,0,0,1-5,3.313,7.1,7.1,0,0,1-2-.3V33.109l.688.016a3.715,3.715,0,0,0,1.914-.391,2.566,2.566,0,0,0,.992-1.3l.531-1.391-5.922-16.953h4.859Zm8.813-2.219a10.026,10.026,0,0,1,.969-4.484,7.092,7.092,0,0,1,2.789-3.047,8.137,8.137,0,0,1,4.227-1.078,7.7,7.7,0,0,1,5.586,2.094,8.4,8.4,0,0,1,2.414,5.688l.031,1.156a8.836,8.836,0,0,1-2.172,6.242,8.418,8.418,0,0,1-11.664.008,8.992,8.992,0,0,1-2.18-6.375Zm4.516.321a6.319,6.319,0,0,0,.906,3.685,3.256,3.256,0,0,0,5.156.016,6.915,6.915,0,0,0,.922-4.03,6.256,6.256,0,0,0-.922-3.662,3,3,0,0,0-2.594-1.3,2.948,2.948,0,0,0-2.562,1.291A7.031,7.031,0,0,0,253.781,21.711Zm24.406,6.57a5.663,5.663,0,0,1-4.625,2.031,5.341,5.341,0,0,1-4.148-1.562,6.67,6.67,0,0,1-1.461-4.578V13.094h4.516V24.028q0,2.644,2.406,2.644a3.26,3.26,0,0,0,3.156-1.6V13.094h4.531V30h-4.25ZM303.734,30a5.014,5.014,0,0,1-.453-1.516,5.464,5.464,0,0,1-4.266,1.828,6,6,0,0,1-4.117-1.437,4.623,4.623,0,0,1-1.633-3.625,4.778,4.778,0,0,1,1.992-4.125,9.83,9.83,0,0,1,5.758-1.453h2.078V18.7a2.786,2.786,0,0,0-.6-1.875,2.366,2.366,0,0,0-1.9-.7,2.69,2.69,0,0,0-1.789.547,1.858,1.858,0,0,0-.648,1.5h-4.516a4.536,4.536,0,0,1,.906-2.719,5.99,5.99,0,0,1,2.563-1.961,9.339,9.339,0,0,1,3.719-.711,7.378,7.378,0,0,1,4.961,1.57,5.493,5.493,0,0,1,1.836,4.414v7.328a8.082,8.082,0,0,0,.672,3.641V30ZM300,26.859a3.889,3.889,0,0,0,1.844-.445,2.925,2.925,0,0,0,1.25-1.2V22.313h-1.687q-3.391,0-3.609,2.344l-.016.266a1.808,1.808,0,0,0,.594,1.391A2.306,2.306,0,0,0,300,26.859Zm20.594-9.531a12.268,12.268,0,0,0-1.625-.125q-2.563,0-3.359,1.734V30h-4.516V13.094h4.266l.125,2.016a4.184,4.184,0,0,1,3.766-2.328,4.732,4.732,0,0,1,1.406.2Zm9.656,12.984a8.3,8.3,0,0,1-6.055-2.281,8.109,8.109,0,0,1-2.336-6.078v-.437a10.213,10.213,0,0,1,.984-4.555,7.224,7.224,0,0,1,2.789-3.094,7.828,7.828,0,0,1,4.117-1.086,7.016,7.016,0,0,1,5.461,2.188,8.889,8.889,0,0,1,1.992,6.2v1.844H326.438a4.2,4.2,0,0,0,1.32,2.656,3.991,3.991,0,0,0,2.789,1,4.874,4.874,0,0,0,4.078-1.891l2.219,2.484a6.779,6.779,0,0,1-2.75,2.242A9.022,9.022,0,0,1,330.25,30.313Zm-.516-13.891a2.822,2.822,0,0,0-2.18.91,4.714,4.714,0,0,0-1.07,2.605h6.281v-.361a3.362,3.362,0,0,0-.812-2.331A2.911,2.911,0,0,0,329.734,16.422ZM352.5,30h-4.531V6H352.5Zm3.016-8.609a10.026,10.026,0,0,1,.969-4.484,7.092,7.092,0,0,1,2.789-3.047,8.137,8.137,0,0,1,4.227-1.078,7.7,7.7,0,0,1,5.586,2.094,8.4,8.4,0,0,1,2.414,5.688l.031,1.156a8.836,8.836,0,0,1-2.172,6.242,8.418,8.418,0,0,1-11.664.008,8.992,8.992,0,0,1-2.18-6.375Zm4.516.321a6.32,6.32,0,0,0,.906,3.685,3.256,3.256,0,0,0,5.156.016,6.915,6.915,0,0,0,.922-4.03,6.256,6.256,0,0,0-.922-3.662,3,3,0,0,0-2.594-1.3,2.948,2.948,0,0,0-2.562,1.291A7.032,7.032,0,0,0,360.031,21.711Zm13.578-.321a10.026,10.026,0,0,1,.969-4.484,7.092,7.092,0,0,1,2.789-3.047,8.137,8.137,0,0,1,4.227-1.078,7.7,7.7,0,0,1,5.586,2.094,8.4,8.4,0,0,1,2.414,5.688l.031,1.156a8.836,8.836,0,0,1-2.172,6.242,8.418,8.418,0,0,1-11.664.008,8.992,8.992,0,0,1-2.18-6.375Zm4.516.321a6.32,6.32,0,0,0,.906,3.685,3.256,3.256,0,0,0,5.156.016,6.915,6.915,0,0,0,.922-4.03,6.256,6.256,0,0,0-.922-3.662,3,3,0,0,0-2.594-1.3,2.948,2.948,0,0,0-2.562,1.291A7.032,7.032,0,0,0,378.125,21.711Zm20.422,1.508-1.625,1.625V30h-4.516V6h4.516V19.3l.875-1.125,4.328-5.078h5.422l-6.109,7.047L408.078,30h-5.187ZM414.266,30h-4.531V13.094h4.531Zm-4.8-21.281a2.224,2.224,0,0,1,.68-1.672,2.929,2.929,0,0,1,3.7,0,2.211,2.211,0,0,1,.688,1.672,2.217,2.217,0,0,1-.7,1.688,2.9,2.9,0,0,1-3.672,0A2.217,2.217,0,0,1,409.469,8.719Zm12.672,4.375.141,1.953a5.9,5.9,0,0,1,4.859-2.266,4.905,4.905,0,0,1,4,1.578,7.363,7.363,0,0,1,1.344,4.719V30h-4.516V19.188a2.93,2.93,0,0,0-.625-2.086,2.8,2.8,0,0,0-2.078-.648,3.106,3.106,0,0,0-2.859,1.625V30h-4.516V13.094Zm13.109,8.328a9.908,9.908,0,0,1,1.852-6.266,6,6,0,0,1,4.992-2.375,5.262,5.262,0,0,1,4.328,1.906l.188-1.594H450.7V29.438A7.226,7.226,0,0,1,449.7,33.3a6.473,6.473,0,0,1-2.836,2.5,9.97,9.97,0,0,1-4.281.859,9.27,9.27,0,0,1-3.625-.742A6.434,6.434,0,0,1,436.281,34l2-2.75a5.29,5.29,0,0,0,4.094,1.891,3.872,3.872,0,0,0,2.8-.961,3.6,3.6,0,0,0,1-2.727v-.906a5.223,5.223,0,0,1-4.109,1.766,5.984,5.984,0,0,1-4.93-2.383,9.9,9.9,0,0,1-1.883-6.32Zm4.516.336a6.169,6.169,0,0,0,.922,3.607,2.933,2.933,0,0,0,2.531,1.307,3.136,3.136,0,0,0,2.953-1.549V18a3.128,3.128,0,0,0-2.922-1.549,2.951,2.951,0,0,0-2.555,1.33A6.954,6.954,0,0,0,439.766,21.758ZM2.969,68V54.406H.453V51.094H2.969V49.656A5.837,5.837,0,0,1,4.6,45.242a6.324,6.324,0,0,1,4.57-1.57,10.557,10.557,0,0,1,2.3.313l-.047,3.5a5.757,5.757,0,0,0-1.375-.141q-2.547,0-2.547,2.391v1.359h3.359v3.313H7.5V68ZM12.5,59.391a10.026,10.026,0,0,1,.969-4.484,7.092,7.092,0,0,1,2.789-3.047,8.137,8.137,0,0,1,4.227-1.078,7.7,7.7,0,0,1,5.586,2.094,8.4,8.4,0,0,1,2.414,5.688l.031,1.156a8.836,8.836,0,0,1-2.172,6.242,7.549,7.549,0,0,1-5.828,2.352,7.587,7.587,0,0,1-5.836-2.344,8.992,8.992,0,0,1-2.18-6.375Zm4.516.321a6.32,6.32,0,0,0,.906,3.685,2.99,2.99,0,0,0,2.594,1.275,3,3,0,0,0,2.563-1.26A6.915,6.915,0,0,0,24,59.383a6.256,6.256,0,0,0-.922-3.662,3,3,0,0,0-2.594-1.3,2.948,2.948,0,0,0-2.562,1.291A7.031,7.031,0,0,0,17.016,59.711ZM40.8,55.328a12.268,12.268,0,0,0-1.625-.125q-2.562,0-3.359,1.734V68H31.3V51.094h4.266l.125,2.016a4.184,4.184,0,0,1,3.766-2.328,4.732,4.732,0,0,1,1.406.2Zm9.438,4.094a10.188,10.188,0,0,1,1.773-6.3,5.754,5.754,0,0,1,4.852-2.344,5.178,5.178,0,0,1,4.078,1.844V44h4.531V68H61.391l-.219-1.8a5.314,5.314,0,0,1-4.344,2.109,5.739,5.739,0,0,1-4.789-2.352A10.517,10.517,0,0,1,50.234,59.422Zm4.516.336a6.674,6.674,0,0,0,.828,3.646,2.7,2.7,0,0,0,2.406,1.268A3.022,3.022,0,0,0,60.938,62.9V56.221a2.978,2.978,0,0,0-2.922-1.768Q54.75,54.453,54.75,59.758Zm13.516-.367a10.026,10.026,0,0,1,.969-4.484,7.092,7.092,0,0,1,2.789-3.047,8.137,8.137,0,0,1,4.227-1.078,7.7,7.7,0,0,1,5.586,2.094,8.4,8.4,0,0,1,2.414,5.688l.031,1.156a8.836,8.836,0,0,1-2.172,6.242,8.418,8.418,0,0,1-11.664.008,8.992,8.992,0,0,1-2.18-6.375Zm4.516.321a6.32,6.32,0,0,0,.906,3.685,3.256,3.256,0,0,0,5.156.016,6.915,6.915,0,0,0,.922-4.03,6.256,6.256,0,0,0-.922-3.662,3,3,0,0,0-2.594-1.3,2.948,2.948,0,0,0-2.562,1.291A7.032,7.032,0,0,0,72.781,59.711Zm22.063,8.6a8.3,8.3,0,0,1-6.055-2.281,8.109,8.109,0,0,1-2.336-6.078v-.437a10.213,10.213,0,0,1,.984-4.555,7.224,7.224,0,0,1,2.789-3.094,7.828,7.828,0,0,1,4.117-1.086A7.016,7.016,0,0,1,99.8,52.969a8.889,8.889,0,0,1,1.992,6.2v1.844H91.031a4.2,4.2,0,0,0,1.32,2.656,3.991,3.991,0,0,0,2.789,1,4.874,4.874,0,0,0,4.078-1.891l2.219,2.484a6.779,6.779,0,0,1-2.75,2.242A9.022,9.022,0,0,1,94.844,68.313Zm-.516-13.891a2.822,2.822,0,0,0-2.18.91,4.714,4.714,0,0,0-1.07,2.605h6.281v-.361a3.362,3.362,0,0,0-.812-2.331A2.911,2.911,0,0,0,94.328,54.422Zm19.188,8.906a1.455,1.455,0,0,0-.82-1.3,9.318,9.318,0,0,0-2.633-.852q-6.031-1.266-6.031-5.125a4.645,4.645,0,0,1,1.867-3.758,7.532,7.532,0,0,1,4.883-1.508A8.107,8.107,0,0,1,115.93,52.3a4.777,4.777,0,0,1,1.93,3.938h-4.516a2.185,2.185,0,0,0-.625-1.6A2.645,2.645,0,0,0,110.766,54a2.7,2.7,0,0,0-1.766.516,1.628,1.628,0,0,0-.625,1.313,1.391,1.391,0,0,0,.711,1.211,7.314,7.314,0,0,0,2.4.8,19.59,19.59,0,0,1,2.844.758q3.578,1.313,3.578,4.547a4.41,4.41,0,0,1-1.984,3.742,8.56,8.56,0,0,1-5.125,1.43,8.941,8.941,0,0,1-3.773-.758,6.331,6.331,0,0,1-2.586-2.078,4.829,4.829,0,0,1-.937-2.852h4.281a2.357,2.357,0,0,0,.891,1.844,3.533,3.533,0,0,0,2.219.641,3.27,3.27,0,0,0,1.961-.492A1.531,1.531,0,0,0,113.516,63.328Zm19.422-12.234.141,1.953a5.9,5.9,0,0,1,4.859-2.266,4.905,4.905,0,0,1,4,1.578,7.363,7.363,0,0,1,1.344,4.719V68h-4.516V57.188a2.93,2.93,0,0,0-.625-2.086,2.8,2.8,0,0,0-2.078-.648,3.107,3.107,0,0,0-2.859,1.625V68h-4.516V51.094ZM146,59.391a10.026,10.026,0,0,1,.969-4.484,7.092,7.092,0,0,1,2.789-3.047,8.137,8.137,0,0,1,4.227-1.078,7.7,7.7,0,0,1,5.586,2.094,8.4,8.4,0,0,1,2.414,5.688l.031,1.156a8.836,8.836,0,0,1-2.172,6.242,8.418,8.418,0,0,1-11.664.008A8.992,8.992,0,0,1,146,59.594Zm4.516.321a6.319,6.319,0,0,0,.906,3.685,3.256,3.256,0,0,0,5.156.016,6.915,6.915,0,0,0,.922-4.03,6.256,6.256,0,0,0-.922-3.662,3,3,0,0,0-2.594-1.3,2.948,2.948,0,0,0-2.562,1.291A7.031,7.031,0,0,0,150.516,59.711ZM170.2,46.938v4.156h2.891v3.313H170.2v8.438a2.015,2.015,0,0,0,.359,1.344,1.8,1.8,0,0,0,1.375.406,7.2,7.2,0,0,0,1.328-.109v3.422a9.3,9.3,0,0,1-2.734.406q-4.75,0-4.844-4.8V54.406h-2.469V51.094h2.469V46.938Zm21.156,21.375a8.3,8.3,0,0,1-6.055-2.281,8.109,8.109,0,0,1-2.336-6.078v-.437a10.213,10.213,0,0,1,.984-4.555,7.224,7.224,0,0,1,2.789-3.094,7.828,7.828,0,0,1,4.117-1.086,7.016,7.016,0,0,1,5.461,2.188,8.889,8.889,0,0,1,1.992,6.2v1.844H187.547a4.2,4.2,0,0,0,1.32,2.656,3.991,3.991,0,0,0,2.789,1,4.874,4.874,0,0,0,4.078-1.891l2.219,2.484a6.779,6.779,0,0,1-2.75,2.242A9.022,9.022,0,0,1,191.359,68.313Zm-.516-13.891a2.822,2.822,0,0,0-2.18.91,4.714,4.714,0,0,0-1.07,2.605h6.281v-.361a3.362,3.362,0,0,0-.812-2.331A2.911,2.911,0,0,0,190.844,54.422Zm16.469,1.719,2.844-5.047h4.828l-4.812,8.281L215.188,68h-4.844l-3.016-5.312-3,5.313h-4.859l5.016-8.625-4.8-8.281h4.844ZM221.922,68h-4.531V51.094h4.531Zm-4.8-21.281a2.224,2.224,0,0,1,.68-1.672,2.929,2.929,0,0,1,3.7,0,2.386,2.386,0,0,1-.008,3.359,2.9,2.9,0,0,1-3.672,0A2.217,2.217,0,0,1,217.125,46.719ZM234.8,63.328a1.455,1.455,0,0,0-.82-1.3,9.318,9.318,0,0,0-2.633-.852q-6.031-1.266-6.031-5.125a4.645,4.645,0,0,1,1.867-3.758,7.532,7.532,0,0,1,4.883-1.508,8.107,8.107,0,0,1,5.148,1.516,4.777,4.777,0,0,1,1.93,3.938h-4.516a2.185,2.185,0,0,0-.625-1.6A2.645,2.645,0,0,0,232.047,54a2.7,2.7,0,0,0-1.766.516,1.628,1.628,0,0,0-.625,1.313,1.391,1.391,0,0,0,.711,1.211,7.314,7.314,0,0,0,2.4.8,19.59,19.59,0,0,1,2.844.758q3.578,1.313,3.578,4.547a4.41,4.41,0,0,1-1.984,3.742,8.56,8.56,0,0,1-5.125,1.43,8.941,8.941,0,0,1-3.773-.758,6.331,6.331,0,0,1-2.586-2.078,4.829,4.829,0,0,1-.937-2.852h4.281a2.357,2.357,0,0,0,.891,1.844,3.533,3.533,0,0,0,2.219.641,3.27,3.27,0,0,0,1.961-.492A1.532,1.532,0,0,0,234.8,63.328Zm12.7-16.391v4.156h2.891v3.313H247.5v8.438a2.015,2.015,0,0,0,.359,1.344,1.8,1.8,0,0,0,1.375.406,7.2,7.2,0,0,0,1.328-.109v3.422a9.3,9.3,0,0,1-2.734.406q-4.75,0-4.844-4.8V54.406h-2.469V51.094h2.469V46.938Zm5.641,18.844a2.273,2.273,0,0,1,.727-1.75,2.823,2.823,0,0,1,3.656,0,2.273,2.273,0,0,1,.727,1.75,2.242,2.242,0,0,1-.719,1.727,2.87,2.87,0,0,1-3.672,0A2.242,2.242,0,0,1,253.141,65.781Z" transform="translate(469 239)" fill="#fff"/>
        </g>
      </g>
    </g>
  </g>
</svg>
